<svg xmlns="http://www.w3.org/2000/svg" width="2000" height="710" viewBox="0 0 2000 710" version="1.1"><path d="M 126 196.620 C 126 196.961, 122.850 215.776, 119 238.430 C 115.150 261.084, 112 280.155, 112 280.810 C 112 281.728, 201.872 282, 505.500 282 C 721.925 282, 899 281.721, 899 281.380 C 899 281.039, 902.150 262.224, 906 239.570 C 909.850 216.916, 913 197.845, 913 197.190 C 913 196.272, 823.128 196, 519.500 196 C 303.075 196, 126 196.279, 126 196.620 M 929 196.620 C 929 196.961, 925.850 215.776, 922 238.430 C 918.150 261.084, 915 280.157, 915 280.814 C 915 281.734, 941.991 281.950, 1032.750 281.754 L 1150.500 281.500 1157.685 239.500 C 1161.636 216.400, 1164.899 197.162, 1164.935 196.750 C 1164.971 196.338, 1111.900 196, 1047 196 C 982.100 196, 929 196.279, 929 196.620 M 1179 196.620 C 1179 196.961, 1175.850 215.776, 1172 238.430 C 1168.150 261.084, 1165 280.157, 1165 280.814 C 1165 281.735, 1187.685 281.951, 1263.750 281.755 L 1362.500 281.500 1369.685 239.500 C 1373.636 216.400, 1376.899 197.162, 1376.935 196.750 C 1376.971 196.338, 1332.450 196, 1278 196 C 1223.550 196, 1179 196.279, 1179 196.620 M 1393 196.620 C 1393 196.961, 1389.850 215.776, 1386 238.430 C 1382.150 261.084, 1379 280.158, 1379 280.816 C 1379 281.736, 1397.493 281.953, 1459.250 281.756 L 1539.500 281.500 1546.685 239.500 C 1550.636 216.400, 1553.899 197.162, 1553.935 196.750 C 1553.971 196.338, 1517.775 196, 1473.500 196 C 1429.225 196, 1393 196.279, 1393 196.620 M 1570 196.620 C 1570 196.961, 1566.850 215.776, 1563 238.430 C 1559.150 261.084, 1556 280.158, 1556 280.817 C 1556 281.738, 1570.302 281.956, 1617.750 281.758 L 1679.500 281.500 1686.685 239.500 C 1690.636 216.400, 1693.899 197.162, 1693.935 196.750 C 1693.971 196.338, 1666.100 196, 1632 196 C 1597.900 196, 1570 196.279, 1570 196.620 M 1710 196.620 C 1710 196.961, 1706.850 215.776, 1703 238.430 C 1699.150 261.084, 1696 280.160, 1696 280.820 C 1696 281.740, 1706.339 281.960, 1740.250 281.760 L 1784.500 281.500 1791.685 239.500 C 1795.636 216.400, 1798.899 197.162, 1798.935 196.750 C 1798.971 196.338, 1778.975 196, 1754.500 196 C 1730.025 196, 1710 196.279, 1710 196.620 M 1815 196.620 C 1815 196.961, 1811.850 215.776, 1808 238.430 C 1804.150 261.084, 1801 280.162, 1801 280.826 C 1801 281.745, 1807.155 281.970, 1826.750 281.767 L 1852.500 281.500 1859.685 239.500 C 1863.636 216.400, 1866.899 197.162, 1866.935 196.750 C 1866.971 196.338, 1855.300 196, 1841 196 C 1826.700 196, 1815 196.279, 1815 196.620 M 1883 196.620 C 1883 196.961, 1879.850 215.776, 1876 238.430 C 1872.150 261.084, 1869 280.174, 1869 280.852 C 1869 281.747, 1871.117 282.004, 1876.750 281.792 L 1884.500 281.500 1891.685 239.500 C 1895.636 216.400, 1898.899 197.162, 1898.935 196.750 C 1898.971 196.338, 1895.400 196, 1891 196 C 1886.600 196, 1883 196.279, 1883 196.620" stroke="none" fill="#d41c3c" fill-rule="evenodd"/><path d="M 149.500 157.648 C 140.700 167.820, 132.455 177.461, 131.178 179.072 L 128.855 182 522.259 182 L 915.663 182 927.582 168.255 C 934.137 160.695, 942.579 151.020, 946.341 146.755 L 953.182 139 559.341 139.076 L 165.500 139.152 149.500 157.648 M 952.500 157.648 C 943.700 167.820, 935.455 177.461, 934.178 179.072 L 931.855 182 1049.796 182 L 1167.737 182 1175.260 173.250 C 1179.397 168.438, 1187.784 158.762, 1193.896 151.750 L 1205.008 139 1086.754 139.076 L 968.500 139.152 952.500 157.648 M 1202.500 157.648 C 1193.700 167.820, 1185.455 177.461, 1184.178 179.072 L 1181.855 182 1280.796 182 L 1379.737 182 1387.260 173.250 C 1391.397 168.438, 1399.784 158.762, 1405.896 151.750 L 1417.008 139 1317.754 139.076 L 1218.500 139.152 1202.500 157.648 M 1416.500 157.648 C 1407.700 167.820, 1399.455 177.461, 1398.178 179.072 L 1395.855 182 1476.296 182 L 1556.737 182 1564.260 173.250 C 1568.397 168.438, 1576.784 158.762, 1582.896 151.750 L 1594.008 139 1513.254 139.076 L 1432.500 139.152 1416.500 157.648 M 1593.500 157.648 C 1584.700 167.820, 1576.455 177.461, 1575.178 179.072 L 1572.855 182 1634.796 182 L 1696.737 182 1704.260 173.250 C 1708.397 168.438, 1716.784 158.762, 1722.896 151.750 L 1734.008 139 1671.754 139.076 L 1609.500 139.152 1593.500 157.648 M 1733.500 157.648 C 1724.700 167.820, 1716.455 177.461, 1715.178 179.072 L 1712.855 182 1757.296 182 L 1801.737 182 1809.260 173.250 C 1813.397 168.438, 1821.784 158.762, 1827.896 151.750 L 1839.008 139 1794.254 139.076 L 1749.500 139.152 1733.500 157.648 M 1838.500 157.648 C 1829.700 167.820, 1821.455 177.461, 1820.178 179.072 L 1817.855 182 1843.796 182 L 1869.737 182 1877.260 173.250 C 1881.397 168.438, 1889.784 158.762, 1895.896 151.750 L 1907.008 139 1880.754 139.076 L 1854.500 139.152 1838.500 157.648 M 1906.500 157.648 C 1897.700 167.820, 1889.455 177.461, 1888.178 179.072 L 1885.855 182 1893.796 182 L 1901.737 182 1909.260 173.250 C 1913.397 168.438, 1921.784 158.762, 1927.896 151.750 L 1939.008 139 1930.754 139.076 L 1922.500 139.152 1906.500 157.648 M 102.090 337.250 C 100.135 347.004, 79 468.119, 79 469.566 C 79 470.802, 92.679 471, 178 471 L 277 471 277 467.366 C 277 461.490, 274.827 455.903, 270.961 451.839 L 267.348 448.041 270.244 445.270 C 277.698 438.140, 279.773 431.642, 286.097 395.613 C 291.711 363.632, 292.049 356.351, 288.309 348 C 286.079 343.019, 282.046 338.592, 277.685 336.337 C 269.809 332.264, 264.759 332.035, 182.321 332.017 L 103.142 332 102.090 337.250 M 332.090 337.250 C 330.135 347.004, 309 468.119, 309 469.566 C 309 470.777, 313.333 471, 336.892 471 L 364.783 471 365.298 468.750 C 365.582 467.512, 369.098 447.712, 373.112 424.750 L 380.411 383 425.205 383 C 449.842 383, 470 383.288, 470 383.640 C 470 383.992, 466.625 403.353, 462.500 426.665 C 458.375 449.976, 455 469.488, 455 470.025 C 455 470.635, 465.385 470.999, 482.750 470.997 L 510.500 470.995 518.923 423.247 C 523.556 396.986, 527.550 371.526, 527.800 366.668 C 528.582 351.413, 524.126 340.656, 515.122 336.062 C 507.599 332.224, 502.143 332, 416.387 332 L 333.142 332 332.090 337.250 M 685.773 333.539 C 670.503 337.284, 661.511 345.253, 655.904 360.012 C 653.964 365.116, 645.375 411.535, 644.318 422.622 C 643.123 435.166, 646.690 443.872, 655.202 449.181 C 657.730 450.758, 672.393 455.801, 690.819 461.431 L 722.138 471 778.569 471 L 835 471 834.994 467.750 C 834.980 459.077, 830.371 451.810, 822.457 447.979 C 820.007 446.793, 792.063 437.999, 760.359 428.436 C 728.655 418.873, 702.499 410.832, 702.233 410.566 C 701.834 410.167, 704.456 393.497, 706.608 382.750 L 707.159 380 751.579 380 C 791.637 380, 796 380.157, 796 381.600 C 796 382.481, 794.854 389.525, 793.454 397.254 C 792.027 405.133, 791.287 411.687, 791.771 412.171 C 792.245 412.645, 804.753 412.913, 819.565 412.767 L 846.497 412.500 849.797 394.500 C 854.149 370.761, 854.557 356.005, 851.078 348.206 C 848.232 341.829, 842.834 336.968, 835.746 334.402 C 830.803 332.613, 826.492 332.493, 761 332.319 C 704.223 332.168, 690.451 332.391, 685.773 333.539 M 878.510 333.250 C 878.275 333.938, 876.310 344.625, 874.143 357 C 871.400 372.661, 870.513 379.880, 871.224 380.750 C 872.006 381.707, 880.532 382, 907.622 382 C 927.080 382, 943 382.337, 943 382.750 C 943 383.163, 939.625 402.625, 935.500 426 C 931.375 449.375, 928 469.070, 928 469.766 C 928 470.763, 933.990 470.975, 956.241 470.766 L 984.483 470.500 992.196 427 C 996.438 403.075, 999.929 383.163, 999.954 382.750 C 999.980 382.337, 1016.614 382, 1036.921 382 L 1073.841 382 1074.396 379.250 C 1077.402 364.349, 1082.099 334.700, 1081.642 333.511 C 1081.131 332.177, 1069.229 332, 980 332 C 900.044 332, 878.848 332.261, 878.510 333.250 M 1102.510 333.250 C 1102.275 333.938, 1096.885 364.200, 1090.532 400.500 C 1084.179 436.800, 1078.752 467.512, 1078.472 468.750 L 1077.962 471 1105.914 471 C 1131.671 471, 1133.906 470.863, 1134.382 469.250 C 1136.018 463.705, 1158.111 334.731, 1157.636 333.494 C 1157.147 332.219, 1153.088 332, 1130 332 C 1109.244 332, 1102.838 332.291, 1102.510 333.250 M 1236.561 399.750 C 1230.004 437.012, 1224.443 468.288, 1224.203 469.250 C 1223.795 470.885, 1225.605 471, 1251.864 471 L 1279.962 471 1280.470 468.750 C 1282.799 458.428, 1303.966 334.354, 1303.573 333.329 C 1303.166 332.269, 1297.547 332, 1275.773 332 L 1248.483 332 1236.561 399.750 M 1337.090 337.250 C 1335.135 347.004, 1314 468.119, 1314 469.566 C 1314 470.777, 1318.333 471, 1341.892 471 L 1369.783 471 1370.298 468.750 C 1370.582 467.512, 1374.098 447.712, 1378.112 424.750 L 1385.411 383 1430.205 383 C 1454.842 383, 1475 383.288, 1475 383.640 C 1475 383.992, 1471.625 403.353, 1467.500 426.665 C 1463.375 449.976, 1460 469.488, 1460 470.025 C 1460 470.635, 1470.385 470.999, 1487.750 470.997 L 1515.500 470.995 1523.889 423.263 C 1528.503 397.011, 1532.503 371.574, 1532.779 366.736 C 1533.645 351.546, 1529.158 340.672, 1520.122 336.062 C 1512.599 332.224, 1507.143 332, 1421.387 332 L 1338.142 332 1337.090 337.250 M 1576 332.750 C 1576 333.163, 1570.600 364.100, 1564 401.500 C 1557.400 438.900, 1552 469.837, 1552 470.250 C 1552 470.663, 1564.731 471, 1580.292 471 L 1608.583 471 1620.634 402.750 C 1627.261 365.212, 1632.482 333.938, 1632.235 333.250 C 1631.890 332.291, 1625.301 332, 1603.893 332 C 1588.552 332, 1576 332.337, 1576 332.750 M 1696.467 333.451 C 1680.151 337.061, 1668.251 348.212, 1664.045 363.832 C 1663.025 367.620, 1645.001 468.335, 1645 470.250 C 1645 470.663, 1657.492 471, 1672.760 471 L 1700.520 471 1707.840 429.250 C 1711.867 406.287, 1715.398 386.488, 1715.689 385.250 L 1716.217 383 1764.108 383 C 1790.449 383, 1812 383.337, 1812 383.750 C 1812 384.163, 1808.625 403.625, 1804.500 427 C 1800.375 450.375, 1797 469.837, 1797 470.250 C 1797 470.663, 1809.494 471, 1824.764 471 L 1852.528 471 1860.943 423.250 C 1869.780 373.103, 1870.966 362.970, 1869.069 353.834 C 1867.204 344.851, 1863.344 339.787, 1855.362 335.857 L 1848.545 332.500 1775.523 332.308 C 1717.740 332.156, 1701.241 332.395, 1696.467 333.451 M 150.104 385.250 C 148.051 395.627, 143 424.920, 143 426.444 C 143 427.827, 147.563 428, 184 428 C 211.526 428, 225 427.661, 225 426.968 C 225 426.400, 226.800 415.839, 229 403.500 C 231.200 391.161, 233 380.825, 233 380.532 C 233 380.240, 214.582 380, 192.071 380 L 151.142 380 150.104 385.250 M 76.547 482.250 C 76.332 482.938, 75.875 485.188, 75.533 487.250 L 74.909 491 103.455 491 C 130.699 491, 132 490.915, 132 489.125 C 132 488.094, 132.281 485.844, 132.625 484.125 L 133.250 481 105.094 481 C 83.444 481, 76.847 481.289, 76.547 482.250 M 219.547 482.250 C 219.332 482.938, 218.875 485.188, 218.533 487.250 L 217.909 491 245.896 491 C 261.288 491, 274.082 490.663, 274.326 490.250 C 274.570 489.837, 275.086 487.587, 275.473 485.250 L 276.176 481 248.057 481 C 226.436 481, 219.847 481.289, 219.547 482.250 M 306.547 482.250 C 306.332 482.938, 305.875 485.188, 305.533 487.250 L 304.909 491 333.455 491 C 360.699 491, 362 490.915, 362 489.125 C 362 488.094, 362.281 485.844, 362.625 484.125 L 363.250 481 335.094 481 C 313.444 481, 306.847 481.289, 306.547 482.250 M 452.519 483.500 C 452.234 484.875, 451.766 487.125, 451.481 488.500 L 450.962 491 478.981 491 C 494.391 491, 507.020 490.663, 507.044 490.250 C 507.068 489.837, 507.457 487.587, 507.909 485.250 L 508.731 481 480.885 481 L 453.038 481 452.519 483.500 M 765.500 484.078 C 770.450 485.668, 775.063 486.976, 775.750 486.985 C 776.438 486.993, 777 487.900, 777 489 C 777 490.952, 777.667 491, 804.869 491 L 832.738 491 833.358 487.250 C 833.699 485.188, 833.983 482.938, 833.989 482.250 C 833.998 481.270, 825.639 481.020, 795.250 481.093 L 756.500 481.187 765.500 484.078 M 925.642 482.750 C 925.371 483.712, 924.855 485.962, 924.495 487.750 L 923.841 491 952.288 491 L 980.735 491 981.724 486 L 982.712 481 954.424 481 C 928.336 481, 926.096 481.136, 925.642 482.750 M 1075.989 482.250 C 1075.983 482.938, 1075.699 485.188, 1075.358 487.250 L 1074.738 491 1102.738 491 L 1130.738 491 1131.358 487.250 C 1131.699 485.188, 1131.983 482.938, 1131.989 482.250 C 1131.998 481.279, 1125.739 481, 1104 481 C 1082.273 481, 1075.998 481.280, 1075.989 482.250 M 1221.625 484.125 C 1220.133 491.587, 1217.806 491, 1248.869 491 L 1276.738 491 1277.358 487.250 C 1277.699 485.188, 1277.983 482.938, 1277.989 482.250 C 1277.998 481.280, 1271.764 481, 1250.125 481 L 1222.250 481 1221.625 484.125 M 1311.547 482.250 C 1311.332 482.938, 1310.875 485.188, 1310.533 487.250 L 1309.909 491 1338.455 491 C 1365.699 491, 1367 490.915, 1367 489.125 C 1367 488.094, 1367.281 485.844, 1367.625 484.125 L 1368.250 481 1340.094 481 C 1318.444 481, 1311.847 481.289, 1311.547 482.250 M 1457.519 483.500 C 1457.234 484.875, 1456.766 487.125, 1456.481 488.500 L 1455.962 491 1483.981 491 C 1499.391 491, 1512.020 490.663, 1512.044 490.250 C 1512.068 489.837, 1512.457 487.587, 1512.909 485.250 L 1513.731 481 1485.885 481 L 1458.038 481 1457.519 483.500 M 1549.505 484.250 C 1549.145 486.038, 1548.629 488.288, 1548.358 489.250 C 1547.897 490.887, 1549.701 491, 1576.353 491 L 1604.841 491 1605.495 487.750 C 1605.855 485.962, 1606.371 483.712, 1606.642 482.750 C 1607.103 481.113, 1605.299 481, 1578.647 481 L 1550.159 481 1549.505 484.250 M 1642.505 484.250 C 1642.145 486.038, 1641.629 488.288, 1641.358 489.250 C 1640.897 490.887, 1642.681 491, 1668.933 491 C 1684.370 491, 1697.020 490.663, 1697.044 490.250 C 1697.068 489.837, 1697.457 487.587, 1697.909 485.250 L 1698.731 481 1670.945 481 L 1643.159 481 1642.505 484.250 M 1794.505 484.250 C 1794.145 486.038, 1793.629 488.288, 1793.358 489.250 C 1792.897 490.887, 1794.681 491, 1820.933 491 C 1836.370 491, 1849.020 490.663, 1849.044 490.250 C 1849.068 489.837, 1849.457 487.587, 1849.909 485.250 L 1850.731 481 1822.945 481 L 1795.159 481 1794.505 484.250 M 632.682 486.651 C 632.307 487.026, 632 488.158, 632 489.167 C 632 490.901, 633.517 491, 660.070 491 L 688.139 491 687.820 488.750 L 687.500 486.500 660.432 486.234 C 645.545 486.088, 633.058 486.276, 632.682 486.651 M 72.625 504.125 C 71.132 511.588, 68.790 511, 100 511 C 115.400 511, 128.020 510.663, 128.044 510.250 C 128.068 509.837, 128.457 507.587, 128.909 505.250 L 129.731 501 101.491 501 L 73.250 501 72.625 504.125 M 215.276 506 L 214.288 511 242.511 511 L 270.735 511 271.724 506 L 272.712 501 244.489 501 L 216.265 501 215.276 506 M 302.625 504.125 C 301.132 511.588, 298.790 511, 330 511 C 345.400 511, 358.020 510.663, 358.044 510.250 C 358.068 509.837, 358.457 507.587, 358.909 505.250 L 359.731 501 331.491 501 L 303.250 501 302.625 504.125 M 448.989 502.250 C 448.983 502.938, 448.699 505.188, 448.358 507.250 L 447.738 511 475.310 511 C 490.475 511, 503.082 510.663, 503.326 510.250 C 503.570 509.837, 504.086 507.587, 504.473 505.250 L 505.176 501 477.088 501 C 455.290 501, 448.998 501.280, 448.989 502.250 M 629.956 501.750 C 629.932 502.163, 629.543 504.413, 629.091 506.750 L 628.269 511 656.134 511 C 671.460 511, 684.020 510.663, 684.044 510.250 C 684.068 509.837, 684.457 507.587, 684.909 505.250 L 685.731 501 657.866 501 C 642.540 501, 629.980 501.337, 629.956 501.750 M 774.276 506 L 773.288 511 801.125 511 L 828.962 511 829.481 508.500 C 829.766 507.125, 830.234 504.875, 830.519 503.500 L 831.038 501 803.152 501 L 775.265 501 774.276 506 M 921.625 504.125 C 920.132 511.589, 917.786 511, 949.031 511 C 970.581 511, 977.153 510.711, 977.453 509.750 C 977.668 509.063, 978.125 506.813, 978.467 504.750 L 979.091 501 950.670 501 L 922.250 501 921.625 504.125 M 1072.519 503.500 C 1072.234 504.875, 1071.766 507.125, 1071.481 508.500 L 1070.962 511 1098.962 511 L 1126.962 511 1127.481 508.500 C 1127.766 507.125, 1128.234 504.875, 1128.519 503.500 L 1129.038 501 1101.038 501 L 1073.038 501 1072.519 503.500 M 1218.547 502.250 C 1218.332 502.938, 1217.875 505.188, 1217.533 507.250 L 1216.909 511 1244.875 511 L 1272.841 511 1273.495 507.750 C 1273.855 505.962, 1274.371 503.712, 1274.642 502.750 C 1275.103 501.113, 1273.318 501, 1247.036 501 C 1225.432 501, 1218.847 501.289, 1218.547 502.250 M 1307.625 504.125 C 1306.132 511.588, 1303.790 511, 1335 511 C 1350.400 511, 1363.020 510.663, 1363.044 510.250 C 1363.068 509.837, 1363.457 507.587, 1363.909 505.250 L 1364.731 501 1336.491 501 L 1308.250 501 1307.625 504.125 M 1453.989 502.250 C 1453.983 502.938, 1453.699 505.188, 1453.358 507.250 L 1452.738 511 1480.310 511 C 1495.475 511, 1508.082 510.663, 1508.326 510.250 C 1508.570 509.837, 1509.086 507.587, 1509.473 505.250 L 1510.176 501 1482.088 501 C 1460.290 501, 1453.998 501.280, 1453.989 502.250 M 1545.989 502.250 C 1545.983 502.938, 1545.699 505.188, 1545.358 507.250 L 1544.738 511 1573.369 511 C 1600.697 511, 1602 510.915, 1602 509.125 C 1602 508.094, 1602.281 505.844, 1602.625 504.125 L 1603.250 501 1574.625 501 C 1552.398 501, 1545.998 501.279, 1545.989 502.250 M 1638.989 502.250 C 1638.983 502.938, 1638.699 505.188, 1638.358 507.250 L 1637.738 511 1665.869 511 C 1692.708 511, 1694 510.914, 1694 509.125 C 1694 508.094, 1694.281 505.844, 1694.625 504.125 L 1695.250 501 1667.125 501 C 1645.298 501, 1638.998 501.280, 1638.989 502.250 M 1790.989 502.250 C 1790.983 502.938, 1790.699 505.188, 1790.358 507.250 L 1789.738 511 1817.869 511 C 1844.708 511, 1846 510.914, 1846 509.125 C 1846 508.094, 1846.281 505.844, 1846.625 504.125 L 1847.250 501 1819.125 501 C 1797.298 501, 1790.998 501.280, 1790.989 502.250 M 69.547 522.250 C 69.332 522.938, 68.875 525.188, 68.533 527.250 L 67.909 531 167.486 531 C 246.272 531, 267.144 530.739, 267.453 529.750 C 267.668 529.063, 268.125 526.813, 268.467 524.750 L 269.091 521 241.104 521 C 223.525 521, 212.888 521.372, 212.500 522 C 212.104 522.642, 196.490 523, 168.941 523 C 140.980 523, 126 522.651, 126 522 C 126 520.406, 70.045 520.654, 69.547 522.250 M 299.547 522.250 C 299.332 522.938, 298.875 525.188, 298.533 527.250 L 297.909 531 398.822 531 L 499.735 531 500.724 526 L 501.712 521 400.825 521 C 320.990 521, 299.856 521.261, 299.547 522.250 M 626 522.875 C 626 523.906, 625.719 526.156, 625.375 527.875 L 624.750 531 724.816 531 C 779.852 531, 825.117 530.620, 825.404 530.155 C 825.692 529.690, 826.226 527.440, 826.591 525.155 L 827.256 521 799.687 521 C 782.386 521, 771.888 521.372, 771.500 522 C 771.103 522.642, 754.990 523, 726.441 523 C 697.480 523, 682 522.652, 682 522 C 682 521.357, 672 521, 654 521 C 627.289 521, 626 521.086, 626 522.875 M 918.547 522.250 C 918.332 522.938, 917.875 525.188, 917.533 527.250 L 916.909 531 945.330 531 L 973.750 531 974.375 527.875 C 975.868 520.411, 978.214 521, 946.969 521 C 925.419 521, 918.847 521.289, 918.547 522.250 M 1068.989 522.250 C 1068.983 522.938, 1068.699 525.188, 1068.358 527.250 L 1067.738 531 1168.310 531 C 1223.625 531, 1269.082 530.663, 1269.326 530.250 C 1269.570 529.837, 1270.086 527.587, 1270.473 525.250 L 1271.176 521 1170.088 521 C 1089.890 521, 1068.998 521.258, 1068.989 522.250 M 1304.547 522.250 C 1304.332 522.938, 1303.875 525.188, 1303.533 527.250 L 1302.909 531 1403.822 531 L 1504.735 531 1505.724 526 L 1506.712 521 1405.825 521 C 1325.990 521, 1304.856 521.261, 1304.547 522.250 M 1542.519 523.500 C 1542.234 524.875, 1541.766 527.125, 1541.481 528.500 L 1540.962 531 1569.481 531 C 1585.166 531, 1598.020 530.663, 1598.044 530.250 C 1598.068 529.837, 1598.457 527.587, 1598.909 525.250 L 1599.731 521 1571.385 521 L 1543.038 521 1542.519 523.500 M 1635.580 523.250 C 1635.328 524.487, 1634.931 526.737, 1634.699 528.250 L 1634.277 531 1738.006 531 L 1841.735 531 1842.724 526 L 1843.712 521 1739.875 521 L 1636.038 521 1635.580 523.250 M 65.276 546 L 64.288 551 161.485 551 L 258.682 551 261.403 546 L 264.125 541 165.195 541 L 66.265 541 65.276 546 M 295.276 546 L 294.288 551 391.638 551 L 488.987 551 491.994 546.850 C 493.647 544.567, 495 542.317, 495 541.850 C 495 541.382, 450.285 541, 395.633 541 L 296.265 541 295.276 546 M 625 542.851 C 625 543.869, 625.494 546.119, 626.098 547.851 L 627.196 551 721.530 551 L 815.864 551 817.790 548.250 C 818.850 546.737, 820.246 544.487, 820.893 543.250 L 822.070 541 723.535 541 C 628.315 541, 625 541.062, 625 542.851 M 914.625 544.125 C 913.132 551.589, 910.786 551, 942.031 551 C 963.581 551, 970.153 550.711, 970.453 549.750 C 970.668 549.063, 971.125 546.813, 971.467 544.750 L 972.091 541 943.670 541 L 915.250 541 914.625 544.125 M 1068 543.435 C 1068 544.774, 1068.440 547.026, 1068.977 548.440 L 1069.954 551.010 1164.679 550.755 L 1259.404 550.500 1262.169 546.500 C 1263.689 544.300, 1264.949 542.163, 1264.967 541.750 C 1264.985 541.337, 1220.675 541, 1166.500 541 L 1068 541 1068 543.435 M 1300.276 546 L 1299.288 551 1396.638 551 L 1493.987 551 1496.994 546.850 C 1498.647 544.567, 1500 542.317, 1500 541.850 C 1500 541.382, 1455.285 541, 1400.633 541 L 1301.265 541 1300.276 546 M 1538.989 542.250 C 1538.983 542.938, 1538.699 545.188, 1538.358 547.250 L 1537.738 551 1566.369 551 C 1593.697 551, 1595 550.915, 1595 549.125 C 1595 548.094, 1595.281 545.844, 1595.625 544.125 L 1596.250 541 1567.625 541 C 1545.398 541, 1538.998 541.279, 1538.989 542.250 M 1634 541.557 C 1634 541.864, 1634.503 544.114, 1635.119 546.557 L 1636.237 551 1733.869 550.998 L 1831.500 550.996 1834.250 546.643 C 1835.763 544.249, 1837 542, 1837 541.645 C 1837 541.290, 1791.325 541, 1735.500 541 C 1679.675 541, 1634 541.251, 1634 541.557 M 62.552 562.250 C 61.187 566.682, 61.146 568.876, 62.409 569.924 C 63.440 570.780, 84.775 570.998, 145.149 570.767 C 220.999 570.478, 226.872 570.333, 232 568.617 C 237.801 566.676, 247 562.301, 247 561.483 C 247 561.217, 205.586 561, 154.969 561 C 82.216 561, 62.857 561.262, 62.552 562.250 M 292.552 562.250 C 291.189 566.674, 291.146 568.876, 292.402 569.919 C 293.425 570.768, 315.138 570.992, 375.643 570.780 C 457.359 570.494, 457.511 570.490, 464 568.262 C 467.575 567.035, 472.300 564.913, 474.500 563.546 L 478.500 561.062 385.719 561.031 C 312.344 561.007, 292.857 561.261, 292.552 562.250 M 635.500 562.646 C 639.243 565.606, 647.483 568.881, 654 569.996 C 658.444 570.757, 680.109 571.006, 722.500 570.783 C 783.437 570.463, 784.611 570.420, 791 568.244 C 794.575 567.026, 799.300 564.913, 801.500 563.546 L 805.500 561.062 719.500 561.063 C 640.896 561.064, 633.672 561.200, 635.500 562.646 M 911.658 561.750 C 911.184 562.522, 910.706 567.532, 910.894 569.750 C 910.976 570.718, 917.298 571, 938.875 571 L 966.750 571 967.375 567.875 C 968.868 560.412, 971.203 561, 940.059 561 C 924.691 561, 911.911 561.337, 911.658 561.750 M 1078.500 562.646 C 1082.201 565.573, 1090.815 569.075, 1096.679 570.035 C 1099.916 570.565, 1129.134 570.983, 1162.500 570.977 C 1228.337 570.964, 1230.505 570.803, 1241.872 565.065 C 1245.242 563.363, 1248 561.753, 1248 561.486 C 1248 561.219, 1209.412 561.014, 1162.250 561.032 C 1083.870 561.061, 1076.672 561.200, 1078.500 562.646 M 1297.552 562.250 C 1296.189 566.674, 1296.146 568.876, 1297.402 569.919 C 1298.425 570.768, 1320.138 570.992, 1380.643 570.780 C 1462.359 570.494, 1462.511 570.490, 1469 568.262 C 1472.575 567.035, 1477.300 564.913, 1479.500 563.546 L 1483.500 561.062 1390.719 561.031 C 1317.344 561.007, 1297.857 561.261, 1297.552 562.250 M 1535.436 563.398 C 1535.105 564.717, 1534.984 566.855, 1535.167 568.148 L 1535.500 570.500 1563.250 570.766 C 1578.513 570.912, 1591.020 570.687, 1591.044 570.266 C 1591.068 569.845, 1591.457 567.587, 1591.909 565.250 L 1592.731 561 1564.385 561 L 1536.038 561 1535.436 563.398 M 1644.980 562.476 C 1647.169 565.113, 1656.596 568.919, 1663.653 570.014 C 1668.179 570.716, 1692.689 570.979, 1735.023 570.780 C 1798.638 570.480, 1799.587 570.446, 1806 568.253 C 1809.575 567.031, 1814.300 564.913, 1816.500 563.546 L 1820.500 561.062 1732.128 561.031 C 1654.329 561.004, 1643.902 561.177, 1644.980 562.476" stroke="none" fill="#fcfcfc" fill-rule="evenodd"/></svg>